<svg width="410" height="146" viewBox="0 0 410 146" fill="none" xmlns="http://www.w3.org/2000/svg">
<path d="M73.2422 52.2285C73.8281 51.903 74.4303 51.4961 75.0488 51.0078C75.6999 50.5195 76.3184 50.015 76.9043 49.4941C77.4902 48.9733 78.0111 48.485 78.4668 48.0293C78.9551 47.541 79.3294 47.1178 79.5898 46.7598C79.7852 46.5319 80.0456 46.418 80.3711 46.418C80.9245 46.418 81.3639 46.6296 81.6895 47.0527C82.0475 47.4434 82.2266 47.8665 82.2266 48.3223C82.2266 48.6478 82.1615 48.9245 82.0312 49.1523C81.6406 49.6732 81.1361 50.2591 80.5176 50.9102C79.9316 51.5286 79.2318 52.1634 78.418 52.8145C77.6367 53.4655 76.7741 54.1328 75.8301 54.8164C74.8861 55.4674 73.9095 56.0859 72.9004 56.6719C72.347 63.0846 70.9961 68.6836 68.8477 73.4688C66.7318 78.2214 64.0137 82.1927 60.6934 85.3828C57.4056 88.5729 53.6296 90.9655 49.3652 92.5605C45.1335 94.123 40.625 94.9043 35.8398 94.9043C33.2357 94.9043 30.599 94.6276 27.9297 94.0742C25.293 93.5208 22.7539 92.6745 20.3125 91.5352C17.8711 90.3633 15.5924 88.8984 13.4766 87.1406C11.3607 85.3503 9.52148 83.2344 7.95898 80.793C6.39648 78.319 5.15951 75.5195 4.24805 72.3945C3.36914 69.237 2.92969 65.7051 2.92969 61.7988C2.92969 57.9251 3.38542 54.263 4.29688 50.8125C5.24089 47.3294 6.60807 44.1068 8.39844 41.1445C10.2214 38.1497 12.4512 35.4642 15.0879 33.0879C17.7246 30.679 20.7682 28.612 24.2188 26.8867C24.4792 26.7565 24.7721 26.6914 25.0977 26.6914C25.5534 26.6914 25.9766 26.8542 26.3672 27.1797C26.7578 27.5052 26.9531 27.9447 26.9531 28.498C26.9531 28.8561 26.8392 29.1979 26.6113 29.5234C26.416 29.8164 26.1393 30.0443 25.7812 30.207C25.5859 30.3047 24.9674 30.6139 23.9258 31.1348C22.9167 31.623 21.696 32.388 20.2637 33.4297C18.8639 34.4714 17.3503 35.806 15.7227 37.4336C14.1276 39.0286 12.6465 40.9818 11.2793 43.293C9.94466 45.6042 8.82161 48.2897 7.91016 51.3496C7.03125 54.4095 6.5918 57.8926 6.5918 61.7988C6.5918 65.3796 6.96615 68.5371 7.71484 71.2715C8.49609 74.0059 9.52148 76.3984 10.791 78.4492C12.0605 80.5 13.5091 82.2415 15.1367 83.6738C16.7969 85.1061 18.4896 86.2943 20.2148 87.2383C21.9727 88.1823 23.7142 88.931 25.4395 89.4844C27.1647 90.0378 28.7435 90.4447 30.1758 90.7051C31.6406 90.9655 32.8776 91.1283 33.8867 91.1934C34.8958 91.2585 35.5632 91.291 35.8887 91.291C39.9251 91.291 43.7826 90.6562 47.4609 89.3867C51.1393 88.1172 54.4434 86.1641 57.373 83.5273C60.3027 80.8581 62.7604 77.4727 64.7461 73.3711C66.7643 69.2695 68.1315 64.3867 68.8477 58.7227C66.7318 59.6667 64.5182 60.4154 62.207 60.9688C59.9284 61.4896 57.5358 61.75 55.0293 61.75C51.5788 61.75 48.2259 61.3105 44.9707 60.4316C41.7155 59.5202 38.8346 58.1693 36.3281 56.3789C33.8216 54.556 31.8034 52.2936 30.2734 49.5918C28.7435 46.89 27.9785 43.7324 27.9785 40.1191C27.9785 37.1895 28.4831 34.569 29.4922 32.2578C30.5339 29.9141 31.9336 27.9284 33.6914 26.3008C35.4492 24.6406 37.4837 23.3874 39.7949 22.541C42.1061 21.6621 44.5312 21.2227 47.0703 21.2227C49.1536 21.2227 51.237 21.4668 53.3203 21.9551C55.4362 22.4434 57.4544 23.2083 59.375 24.25C61.3281 25.2591 63.1348 26.5449 64.7949 28.1074C66.4876 29.6699 67.9525 31.5417 69.1895 33.7227C70.459 35.9036 71.4518 38.3939 72.168 41.1934C72.8841 43.9603 73.2422 47.069 73.2422 50.5195V52.2285ZM69.4336 54.5234C69.5312 53.2539 69.5801 51.9844 69.5801 50.7148C69.5801 46.0924 68.8965 42.1374 67.5293 38.8496C66.1947 35.5618 64.4368 32.8763 62.2559 30.793C60.1074 28.7096 57.6823 27.196 54.9805 26.252C52.2786 25.2754 49.5768 24.7871 46.875 24.7871C44.7917 24.7871 42.8223 25.1289 40.9668 25.8125C39.1439 26.4961 37.5326 27.4889 36.1328 28.791C34.7656 30.0931 33.6751 31.7044 32.8613 33.625C32.0801 35.513 31.6895 37.6777 31.6895 40.1191C31.6895 42.4629 32.1777 44.7253 33.1543 46.9062C34.1634 49.0547 35.6445 50.9753 37.5977 52.668C39.5508 54.3281 41.9759 55.6628 44.873 56.6719C47.8027 57.6484 51.2044 58.1367 55.0781 58.1367C57.7148 58.1367 60.2214 57.8112 62.5977 57.1602C65.0065 56.5091 67.2852 55.6302 69.4336 54.5234ZM95.4102 87.5312C94.2708 89.3867 92.9362 90.8516 91.4062 91.9258C89.9089 93 88.3952 93.5371 86.8652 93.5371C85.6283 93.5371 84.5215 93.3092 83.5449 92.8535C82.5684 92.3978 81.722 91.763 81.0059 90.9492C80.2897 90.1029 79.7363 89.0938 79.3457 87.9219C78.9876 86.75 78.8086 85.4316 78.8086 83.9668C78.8086 81.6882 79.0202 79.6699 79.4434 77.9121C79.8991 76.1543 80.3874 74.6895 80.9082 73.5176C81.429 72.3132 81.9173 71.4017 82.373 70.7832C82.8288 70.1647 83.0566 69.8555 83.0566 69.8555C83.2194 69.6602 83.4147 69.5137 83.6426 69.416C83.903 69.3184 84.1634 69.2695 84.4238 69.2695C84.9447 69.2695 85.3678 69.4648 85.6934 69.8555C86.0514 70.2135 86.2305 70.6367 86.2305 71.125C86.2305 71.3203 86.1816 71.5156 86.084 71.7109C86.0189 71.9062 85.9375 72.1016 85.8398 72.2969C85.6771 72.5898 85.4167 73.0456 85.0586 73.6641C84.7005 74.25 84.3262 75.0312 83.9355 76.0078C83.5449 76.9844 83.2031 78.14 82.9102 79.4746C82.6172 80.7767 82.4707 82.2741 82.4707 83.9668C82.4707 85.8874 82.8451 87.3522 83.5938 88.3613C84.375 89.3379 85.4655 89.8262 86.8652 89.8262C87.4512 89.8262 88.1185 89.6471 88.8672 89.2891C89.6484 88.8984 90.3971 88.3125 91.1133 87.5312C91.862 86.75 92.513 85.7572 93.0664 84.5527C93.6198 83.3483 93.9779 81.9323 94.1406 80.3047L94.873 71.9062C94.9382 71.418 95.1497 71.0111 95.5078 70.6855C95.8659 70.36 96.2891 70.1973 96.7773 70.1973C97.3307 70.1973 97.7702 70.4089 98.0957 70.832C98.4212 71.2227 98.584 71.6784 98.584 72.1992L97.9492 80.3047C97.8841 80.9883 97.9004 81.8835 97.998 82.9902C98.1283 84.097 98.3724 85.1875 98.7305 86.2617C99.0885 87.3359 99.6257 88.2637 100.342 89.0449C101.058 89.7936 102.002 90.168 103.174 90.168C104.02 90.168 104.85 89.9564 105.664 89.5332C106.478 89.0775 107.259 88.4915 108.008 87.7754C108.757 87.0592 109.44 86.2617 110.059 85.3828C110.71 84.4714 111.296 83.5599 111.816 82.6484C112.37 81.737 112.842 80.8743 113.232 80.0605C113.623 79.2142 113.949 78.498 114.209 77.9121C114.372 77.554 114.6 77.2773 114.893 77.082C115.186 76.8867 115.511 76.7891 115.869 76.7891C116.455 76.7891 116.911 76.9844 117.236 77.375C117.562 77.7656 117.725 78.1888 117.725 78.6445C117.725 78.9049 117.676 79.1491 117.578 79.377C117.448 79.6374 117.188 80.1908 116.797 81.0371C116.439 81.8509 115.951 82.7949 115.332 83.8691C114.746 84.9108 114.03 86.0176 113.184 87.1895C112.337 88.3613 111.393 89.4518 110.352 90.4609C109.31 91.4375 108.171 92.2513 106.934 92.9023C105.729 93.5208 104.427 93.8301 103.027 93.8301C101.107 93.8301 99.5117 93.293 98.2422 92.2188C96.9727 91.112 96.0286 89.5495 95.4102 87.5312ZM153.809 44.123C153.809 44.6439 153.63 45.0671 153.271 45.3926C152.913 45.6855 152.474 45.832 151.953 45.832H127.197V46.3691C127.197 48.3548 127.051 50.4707 126.758 52.7168C126.465 54.9629 126.058 57.209 125.537 59.4551C125.049 61.6686 124.479 63.8333 123.828 65.9492C123.21 68.0651 122.559 70.0182 121.875 71.8086C121.224 73.599 120.573 75.1615 119.922 76.4961C119.271 77.7982 118.685 78.7747 118.164 79.4258C118.587 80.9232 119.092 82.3229 119.678 83.625C120.264 84.8945 120.915 86.0176 121.631 86.9941C122.38 87.9382 123.177 88.6868 124.023 89.2402C124.87 89.7936 125.781 90.0703 126.758 90.0703C127.897 90.0703 129.02 89.5983 130.127 88.6543C131.266 87.6777 132.308 86.5384 133.252 85.2363C134.229 83.9017 135.075 82.5671 135.791 81.2324C136.54 79.8652 137.077 78.7747 137.402 77.9609C137.728 77.1797 138.298 76.7891 139.111 76.7891C139.665 76.7891 140.104 76.9844 140.43 77.375C140.788 77.7656 140.967 78.1888 140.967 78.6445C140.967 78.8724 140.918 79.1003 140.82 79.3281C140.723 79.556 140.479 80.0768 140.088 80.8906C139.73 81.7044 139.242 82.6484 138.623 83.7227C138.037 84.7969 137.337 85.9362 136.523 87.1406C135.742 88.3125 134.847 89.3867 133.838 90.3633C132.861 91.3398 131.803 92.1536 130.664 92.8047C129.525 93.4557 128.32 93.7812 127.051 93.7812C124.805 93.7812 122.786 93.0488 120.996 91.584C119.206 90.1191 117.676 88.0684 116.406 85.4316C115.169 82.7949 114.225 79.6699 113.574 76.0566C112.923 72.4434 112.598 68.4883 112.598 64.1914C112.598 63.1172 112.614 61.8639 112.646 60.4316C112.679 58.9668 112.744 57.4368 112.842 55.8418C112.939 54.2142 113.086 52.554 113.281 50.8613C113.477 49.1361 113.737 47.4596 114.062 45.832H96.5332C96.0124 45.832 95.5729 45.6855 95.2148 45.3926C94.8568 45.0671 94.6777 44.6439 94.6777 44.123C94.6777 43.6022 94.8568 43.1953 95.2148 42.9023C95.5729 42.5768 96.0124 42.4141 96.5332 42.4141H114.893C115.218 41.2422 115.592 40.168 116.016 39.1914C116.471 38.2148 116.976 37.3685 117.529 36.6523C118.115 35.9362 118.75 35.3828 119.434 34.9922C120.15 34.569 120.931 34.3574 121.777 34.3574C122.591 34.3574 123.291 34.569 123.877 34.9922C124.495 35.3828 125.016 35.9362 125.439 36.6523C125.863 37.3685 126.188 38.2148 126.416 39.1914C126.676 40.168 126.872 41.2422 127.002 42.4141H151.953C152.474 42.4141 152.913 42.5768 153.271 42.9023C153.63 43.1953 153.809 43.6022 153.809 44.123ZM117.041 74.543C118.018 72.3945 118.896 70.0833 119.678 67.6094C120.492 65.1029 121.175 62.5801 121.729 60.041C122.314 57.502 122.754 55.0117 123.047 52.5703C123.372 50.1289 123.535 47.8828 123.535 45.832H117.773C117.318 47.8503 116.943 50.3568 116.65 53.3516C116.39 56.3138 116.26 59.9271 116.26 64.1914C116.26 66.5677 116.325 68.5697 116.455 70.1973C116.585 71.7923 116.781 73.2409 117.041 74.543ZM121.582 38.0195C121.289 38.0195 120.866 38.3451 120.312 38.9961C119.759 39.6146 119.206 40.7539 118.652 42.4141H123.34C123.177 41.0469 122.933 39.9727 122.607 39.1914C122.314 38.4102 121.973 38.0195 121.582 38.0195ZM117.822 78.0586V78.1074V78.0586ZM227.441 59.0645C230.241 59.8457 232.617 60.7409 234.57 61.75C236.556 62.7591 238.216 63.8171 239.551 64.9238C240.918 65.998 241.992 67.1048 242.773 68.2441C243.555 69.3835 244.157 70.474 244.58 71.5156C245.003 72.5573 245.264 73.5339 245.361 74.4453C245.492 75.3242 245.557 76.0729 245.557 76.6914C245.557 78.9701 245.117 81.0046 244.238 82.7949C243.392 84.5853 242.236 86.1641 240.771 87.5312C239.307 88.8984 237.598 90.054 235.645 90.998C233.724 91.9421 231.706 92.707 229.59 93.293C227.474 93.9115 225.309 94.3509 223.096 94.6113C220.882 94.9043 218.783 95.0508 216.797 95.0508C213.574 95.0508 210.238 94.7253 206.787 94.0742C203.369 93.4232 199.902 92.3652 196.387 90.9004C195.605 90.5749 195.215 90.0052 195.215 89.1914C195.215 88.638 195.41 88.1986 195.801 87.873C196.191 87.515 196.615 87.3359 197.07 87.3359C197.298 87.3359 197.542 87.3848 197.803 87.4824C200.83 88.752 203.939 89.7122 207.129 90.3633C210.319 91.0143 213.525 91.3398 216.748 91.3398C221.143 91.3398 224.919 90.9167 228.076 90.0703C231.234 89.224 233.822 88.1172 235.84 86.75C237.891 85.3503 239.404 83.7878 240.381 82.0625C241.357 80.3047 241.846 78.5306 241.846 76.7402C241.846 74.7546 241.292 72.9154 240.186 71.2227C239.111 69.5299 237.565 68.0163 235.547 66.6816C233.561 65.347 231.169 64.2077 228.369 63.2637C225.57 62.3197 222.461 61.6198 219.043 61.1641C216.797 61.5547 214.616 61.8314 212.5 61.9941C210.384 62.1569 208.431 62.2383 206.641 62.2383H205.518C205.29 62.2383 205.078 62.222 204.883 62.1895C202.539 67.821 199.74 72.6875 196.484 76.7891C193.262 80.8906 189.811 84.2923 186.133 86.9941C182.487 89.6634 178.727 91.6491 174.854 92.9512C171.012 94.2207 167.318 94.8555 163.77 94.8555C160.091 94.8555 156.706 94.3346 153.613 93.293C150.553 92.2839 147.917 90.8353 145.703 88.9473C143.49 87.0592 141.764 84.7806 140.527 82.1113C139.29 79.4095 138.672 76.3984 138.672 73.0781C138.672 69.6276 139.339 66.0632 140.674 62.3848C142.041 58.6738 144.059 54.9141 146.729 51.1055C149.268 47.5247 152.083 44.3184 155.176 41.4863C158.268 38.6217 161.507 36.1152 164.893 33.9668C168.311 31.8184 171.826 29.9792 175.439 28.4492C179.053 26.9193 182.633 25.666 186.182 24.6895C189.762 23.7129 193.245 23.013 196.631 22.5898C200.049 22.1341 203.255 21.9062 206.25 21.9062C208.691 21.9062 211.019 21.9876 213.232 22.1504C215.446 22.3132 217.562 22.5573 219.58 22.8828C220.752 21.5807 221.696 20.653 222.412 20.0996C223.128 19.5137 223.535 19.1882 223.633 19.123C224.023 18.9277 224.365 18.8301 224.658 18.8301C225.114 18.8301 225.521 18.9603 225.879 19.2207C226.237 19.4811 226.416 19.8555 226.416 20.3438C226.416 20.9948 226.188 21.5482 225.732 22.0039C225.277 22.4271 224.658 23.013 223.877 23.7617C229.834 25.2266 234.391 27.4401 237.549 30.4023C240.706 33.332 242.285 36.9616 242.285 41.291C242.285 43.6673 241.895 45.7995 241.113 47.6875C240.332 49.5755 239.258 51.2357 237.891 52.668C236.556 54.1003 234.977 55.3535 233.154 56.4277C231.364 57.4694 229.46 58.3483 227.441 59.0645ZM219.092 57.4531C220.524 57.1927 221.989 56.8509 223.486 56.4277C225.016 56.0046 226.497 55.5 227.93 54.9141C229.395 54.2956 230.778 53.5794 232.08 52.7656C233.382 51.9193 234.505 50.9427 235.449 49.8359C236.426 48.6966 237.191 47.4271 237.744 46.0273C238.33 44.6276 238.623 43.0326 238.623 41.2422C238.623 37.5964 237.109 34.5853 234.082 32.209C231.055 29.8327 226.709 28.0749 221.045 26.9355C219.417 28.9538 217.887 31.1836 216.455 33.625C215.023 36.0664 213.704 38.6055 212.5 41.2422C211.296 43.8464 210.205 46.4993 209.229 49.2012C208.285 51.8704 207.503 54.4583 206.885 56.9648C207.536 56.9323 208.138 56.916 208.691 56.916C209.245 56.916 209.717 56.916 210.107 56.916C211.377 56.916 212.76 56.9648 214.258 57.0625C215.755 57.1276 217.367 57.2578 219.092 57.4531ZM216.895 26.252C215.234 26.0241 213.525 25.8613 211.768 25.7637C210.01 25.666 208.171 25.6172 206.25 25.6172C203.385 25.6172 200.342 25.8288 197.119 26.252C193.896 26.6751 190.592 27.3424 187.207 28.2539C183.822 29.1654 180.404 30.3535 176.953 31.8184C173.535 33.2507 170.199 34.9922 166.943 37.043C163.721 39.0612 160.645 41.4212 157.715 44.123C154.785 46.8249 152.116 49.8685 149.707 53.2539C147.266 56.7044 145.426 60.1061 144.189 63.459C142.952 66.8118 142.334 70.002 142.334 73.0293C142.334 75.8613 142.839 78.4004 143.848 80.6465C144.889 82.8926 146.354 84.7969 148.242 86.3594C150.13 87.8893 152.393 89.0775 155.029 89.9238C157.666 90.7376 160.579 91.1445 163.77 91.1445C166.96 91.1445 170.28 90.5749 173.73 89.4355C177.181 88.2637 180.55 86.4896 183.838 84.1133C187.126 81.7044 190.251 78.6771 193.213 75.0312C196.175 71.3529 198.763 66.9909 200.977 61.9453C200.391 61.9453 199.788 61.7826 199.17 61.457C198.551 61.099 198.242 60.5456 198.242 59.7969C198.242 59.0156 198.617 58.4622 199.365 58.1367C200.114 57.7786 201.286 57.4857 202.881 57.2578C203.76 54.5885 204.655 51.9193 205.566 49.25C206.478 46.5807 207.487 43.944 208.594 41.3398C209.701 38.7357 210.921 36.1803 212.256 33.6738C213.59 31.1348 215.137 28.6608 216.895 26.252ZM262.256 54.6699C262.256 55.9069 261.816 56.9648 260.938 57.8438C260.091 58.6901 259.049 59.1133 257.812 59.1133C256.576 59.1133 255.518 58.6901 254.639 57.8438C253.792 56.9648 253.369 55.9069 253.369 54.6699C253.369 54.0514 253.483 53.4818 253.711 52.9609C253.939 52.4076 254.248 51.9355 254.639 51.5449C255.062 51.1217 255.534 50.7962 256.055 50.5684C256.608 50.3405 257.194 50.2266 257.812 50.2266C258.431 50.2266 259.001 50.3405 259.521 50.5684C260.075 50.7962 260.547 51.1217 260.938 51.5449C261.361 51.9355 261.686 52.4076 261.914 52.9609C262.142 53.4818 262.256 54.0514 262.256 54.6699ZM254.346 83.2832C254.346 78.5957 254.639 73.9245 255.225 69.2695C255.29 68.8138 255.485 68.4232 255.811 68.0977C256.169 67.7396 256.624 67.5605 257.178 67.5605C257.666 67.5605 258.073 67.7559 258.398 68.1465C258.724 68.5046 258.887 68.9277 258.887 69.416C258.887 69.6113 258.838 70.1973 258.74 71.1738C258.675 72.1504 258.577 73.3223 258.447 74.6895C258.35 76.0241 258.252 77.4564 258.154 78.9863C258.089 80.4837 258.057 81.8672 258.057 83.1367C258.057 84.862 258.219 86.2617 258.545 87.3359C258.903 88.3776 259.342 89.1914 259.863 89.7773C260.417 90.3633 260.986 90.7539 261.572 90.9492C262.191 91.1445 262.777 91.2422 263.33 91.2422C264.242 91.2422 265.186 90.9167 266.162 90.2656C267.139 89.6146 268.132 88.7031 269.141 87.5312C270.182 86.3594 271.224 84.9596 272.266 83.332C273.307 81.6719 274.333 79.8327 275.342 77.8145C275.505 77.4889 275.732 77.2448 276.025 77.082C276.318 76.8867 276.644 76.7891 277.002 76.7891C277.523 76.7891 277.946 76.9844 278.271 77.375C278.63 77.7656 278.809 78.1888 278.809 78.6445C278.809 78.9701 278.743 79.2467 278.613 79.4746C278.223 80.2233 277.734 81.1348 277.148 82.209C276.562 83.2832 275.895 84.39 275.146 85.5293C274.398 86.6686 273.568 87.8079 272.656 88.9473C271.777 90.054 270.833 91.0632 269.824 91.9746C268.815 92.8535 267.757 93.5697 266.65 94.123C265.544 94.6764 264.421 94.9531 263.281 94.9531C261.816 94.9531 260.531 94.6439 259.424 94.0254C258.317 93.4069 257.373 92.5768 256.592 91.5352C255.843 90.4935 255.273 89.2728 254.883 87.873C254.525 86.4408 254.346 84.9108 254.346 83.2832ZM259.521 54.6699C259.521 54.2142 259.342 53.8236 258.984 53.498C258.659 53.14 258.268 52.9609 257.812 52.9609C257.357 52.9609 256.966 53.14 256.641 53.498C256.315 53.8236 256.152 54.2142 256.152 54.6699C256.152 55.1257 256.315 55.5163 256.641 55.8418C256.966 56.1673 257.357 56.3301 257.812 56.3301C258.268 56.3301 258.659 56.1673 258.984 55.8418C259.342 55.5163 259.521 55.1257 259.521 54.6699ZM303.076 79.4746C302.718 80.2233 302.262 81.1185 301.709 82.1602C301.188 83.1693 300.586 84.2272 299.902 85.334C299.219 86.4408 298.454 87.5475 297.607 88.6543C296.761 89.7285 295.833 90.7051 294.824 91.584C293.848 92.4303 292.79 93.1139 291.65 93.6348C290.544 94.1882 289.355 94.4648 288.086 94.4648C286.133 94.4648 284.456 93.8626 283.057 92.6582C281.657 91.4538 280.469 89.875 279.492 87.9219C278.516 85.9688 277.718 83.7552 277.1 81.2812C276.514 78.7747 276.058 76.2357 275.732 73.6641C275.407 71.0599 275.179 68.5371 275.049 66.0957C274.951 63.6543 274.902 61.4896 274.902 59.6016C274.902 56.8672 274.984 54.0352 275.146 51.1055C275.342 48.1758 275.635 45.3112 276.025 42.5117C276.416 39.7122 276.904 37.0592 277.49 34.5527C278.109 32.0462 278.825 29.849 279.639 27.9609C280.485 26.0729 281.445 24.5755 282.52 23.4688C283.594 22.362 284.814 21.8086 286.182 21.8086C287.256 21.8086 288.216 22.069 289.062 22.5898C289.941 23.0781 290.674 23.8919 291.26 25.0312C291.846 26.1706 292.301 27.6517 292.627 29.4746C292.952 31.2975 293.115 33.5273 293.115 36.1641C293.115 39.4193 292.773 42.7884 292.09 46.2715C291.406 49.722 290.479 53.2051 289.307 56.7207C288.135 60.2363 286.751 63.752 285.156 67.2676C283.561 70.7507 281.852 74.1523 280.029 77.4727C280.843 81.6068 281.934 84.862 283.301 87.2383C284.668 89.582 286.312 90.7539 288.232 90.7539C289.535 90.7539 290.788 90.2493 291.992 89.2402C293.197 88.1986 294.303 86.9779 295.312 85.5781C296.322 84.1784 297.201 82.7624 297.949 81.3301C298.73 79.8652 299.333 78.6934 299.756 77.8145C299.919 77.4889 300.146 77.2448 300.439 77.082C300.732 76.8867 301.058 76.7891 301.416 76.7891C301.969 76.7891 302.409 76.9844 302.734 77.375C303.092 77.7656 303.271 78.2051 303.271 78.6934C303.271 78.8887 303.206 79.1491 303.076 79.4746ZM278.613 59.8457C278.613 61.929 278.662 63.931 278.76 65.8516C278.857 67.7721 278.988 69.6113 279.15 71.3691C280.518 68.7324 281.82 65.9329 283.057 62.9707C284.294 59.9759 285.384 56.9648 286.328 53.9375C287.272 50.8776 288.021 47.8503 288.574 44.8555C289.16 41.8281 289.453 38.9473 289.453 36.2129C289.453 32.3717 289.144 29.6211 288.525 27.9609C287.907 26.3008 287.077 25.4707 286.035 25.4707C285.352 25.4707 284.684 25.9427 284.033 26.8867C283.415 27.8307 282.829 29.1165 282.275 30.7441C281.722 32.3717 281.217 34.2923 280.762 36.5059C280.306 38.7194 279.915 41.0957 279.59 43.6348C279.297 46.1738 279.053 48.8268 278.857 51.5938C278.695 54.3607 278.613 57.1113 278.613 59.8457ZM327.588 79.4746C327.23 80.2233 326.774 81.1185 326.221 82.1602C325.7 83.1693 325.098 84.2272 324.414 85.334C323.73 86.4408 322.965 87.5475 322.119 88.6543C321.273 89.7285 320.345 90.7051 319.336 91.584C318.359 92.4303 317.301 93.1139 316.162 93.6348C315.055 94.1882 313.867 94.4648 312.598 94.4648C310.645 94.4648 308.968 93.8626 307.568 92.6582C306.169 91.4538 304.98 89.875 304.004 87.9219C303.027 85.9688 302.23 83.7552 301.611 81.2812C301.025 78.7747 300.57 76.2357 300.244 73.6641C299.919 71.0599 299.691 68.5371 299.561 66.0957C299.463 63.6543 299.414 61.4896 299.414 59.6016C299.414 56.8672 299.495 54.0352 299.658 51.1055C299.854 48.1758 300.146 45.3112 300.537 42.5117C300.928 39.7122 301.416 37.0592 302.002 34.5527C302.62 32.0462 303.337 29.849 304.15 27.9609C304.997 26.0729 305.957 24.5755 307.031 23.4688C308.105 22.362 309.326 21.8086 310.693 21.8086C311.768 21.8086 312.728 22.069 313.574 22.5898C314.453 23.0781 315.186 23.8919 315.771 25.0312C316.357 26.1706 316.813 27.6517 317.139 29.4746C317.464 31.2975 317.627 33.5273 317.627 36.1641C317.627 39.4193 317.285 42.7884 316.602 46.2715C315.918 49.722 314.99 53.2051 313.818 56.7207C312.646 60.2363 311.263 63.752 309.668 67.2676C308.073 70.7507 306.364 74.1523 304.541 77.4727C305.355 81.6068 306.445 84.862 307.812 87.2383C309.18 89.582 310.824 90.7539 312.744 90.7539C314.046 90.7539 315.299 90.2493 316.504 89.2402C317.708 88.1986 318.815 86.9779 319.824 85.5781C320.833 84.1784 321.712 82.7624 322.461 81.3301C323.242 79.8652 323.844 78.6934 324.268 77.8145C324.43 77.4889 324.658 77.2448 324.951 77.082C325.244 76.8867 325.57 76.7891 325.928 76.7891C326.481 76.7891 326.921 76.9844 327.246 77.375C327.604 77.7656 327.783 78.2051 327.783 78.6934C327.783 78.8887 327.718 79.1491 327.588 79.4746ZM303.125 59.8457C303.125 61.929 303.174 63.931 303.271 65.8516C303.369 67.7721 303.499 69.6113 303.662 71.3691C305.029 68.7324 306.331 65.9329 307.568 62.9707C308.805 59.9759 309.896 56.9648 310.84 53.9375C311.784 50.8776 312.533 47.8503 313.086 44.8555C313.672 41.8281 313.965 38.9473 313.965 36.2129C313.965 32.3717 313.656 29.6211 313.037 27.9609C312.419 26.3008 311.589 25.4707 310.547 25.4707C309.863 25.4707 309.196 25.9427 308.545 26.8867C307.926 27.8307 307.34 29.1165 306.787 30.7441C306.234 32.3717 305.729 34.2923 305.273 36.5059C304.818 38.7194 304.427 41.0957 304.102 43.6348C303.809 46.1738 303.564 48.8268 303.369 51.5938C303.206 54.3607 303.125 57.1113 303.125 59.8457Z" fill="#111827"/>
<path d="M407.778 34.4065C407.778 34.4065 407.772 34.4393 407.768 34.4557L375.994 93.6323C375.499 94.5977 374.721 95.3886 373.764 95.8989C372.806 96.4093 371.716 96.6146 370.639 96.4873C370.485 96.4701 370.333 96.4463 370.182 96.416C369.188 96.2193 368.271 95.7424 367.539 95.0415C366.807 94.3406 366.291 93.4449 366.052 92.4602L359.033 65.5327C358.963 65.2629 358.979 64.9779 359.078 64.7175C359.178 64.457 359.356 64.2341 359.588 64.0798L382.425 48.886C382.996 48.4842 383.388 47.8751 383.517 47.1884C383.646 46.5018 383.502 45.7919 383.115 45.2102C382.728 44.6285 382.129 44.221 381.446 44.0746C380.763 43.9281 380.05 44.0544 379.458 44.4263L356.612 59.6182C356.38 59.7727 356.106 59.8511 355.827 59.8422C355.548 59.8333 355.28 59.7377 355.058 59.5688L332.915 42.6869C332.047 42.0335 331.399 41.1318 331.056 40.1016C330.713 39.0713 330.691 37.961 330.992 36.9178C331.294 35.8746 331.906 34.9478 332.747 34.2602C333.587 33.5726 334.617 33.1566 335.699 33.0674L402.549 26.626L402.598 26.6359C403.546 26.5642 404.496 26.7459 405.35 27.1625C406.205 27.5791 406.933 28.2155 407.46 29.0064C407.987 29.7973 408.295 30.7143 408.35 31.6633C408.406 32.6123 408.209 33.559 407.778 34.4065Z" fill="#111827"/>
</svg>
