<svg width="79" height="71" viewBox="0 0 79 71" fill="none" xmlns="http://www.w3.org/2000/svg">
<path d="M77.778 8.40649C77.778 8.40649 77.7714 8.43932 77.7681 8.45574L45.9942 67.6323C45.4992 68.5977 44.7209 69.3886 43.7636 69.8989C42.8063 70.4093 41.7159 70.6146 40.6387 70.4873C40.485 70.4701 40.3327 70.4463 40.1817 70.416C39.1877 70.2193 38.2707 69.7424 37.5389 69.0415C36.8072 68.3406 36.2912 67.4449 36.0519 66.4602L29.0331 39.5327C28.963 39.2629 28.9787 38.9779 29.0782 38.7175C29.1777 38.457 29.356 38.2341 29.5882 38.0798L52.4246 22.886C52.9962 22.4842 53.3882 21.8751 53.5171 21.1884C53.646 20.5018 53.5016 19.7919 53.1147 19.2102C52.7278 18.6285 52.129 18.221 51.446 18.0746C50.7629 17.9281 50.0497 18.0544 49.4583 18.4263L26.612 33.6182C26.38 33.7727 26.1056 33.8511 25.8269 33.8422C25.5483 33.8333 25.2794 33.7377 25.0577 33.5688L2.91452 16.6869C2.04729 16.0335 1.3991 15.1318 1.05583 14.1016C0.712569 13.0713 0.690437 11.961 0.992372 10.9178C1.29431 9.87464 1.90605 8.94783 2.74655 8.2602C3.58704 7.57258 4.6166 7.1566 5.69879 7.06739L72.5489 0.626022L72.5982 0.635921C73.546 0.564192 74.4958 0.745936 75.3501 1.16251C76.2045 1.57908 76.9326 2.21548 77.4598 3.00641C77.9871 3.79735 78.2944 4.71434 78.3503 5.66331C78.4063 6.61227 78.2087 7.55905 77.778 8.40649Z" fill="#111827"/>
</svg>
